# xmcd
#
# Track frame offsets: 
#        150
#        19312
#        34920
#        56290
#        75477
#        90915
#        110150
#        122970
#        138152
#        158057
#        181147
#        200732
#        217575
#        233347
#        256100
#        279957
#
# Disc length: 3944 seconds
#
# Revision: 2
# Processed by: cddbd v1.4PL0 Copyright (c) Steve Scherf et al.
# Submitted via: ExactAudioCopy v0.90b4
#
DISCID=c50f6610
DTITLE=Various Artist - Living Chicago Blues Vol. 2
DYEAR=1991
DGENRE=
TTITLE0=The Lonnie Brooks Blues Band - Don't Answer That Door
TTITLE1=The Lonnie Brooks Blues Band - Two Headed Man
TTITLE2=The Lonnie Brooks Blues Band - Cold, Lonely Nights
TTITLE3=The Lonnie Brooks Blues Band - Move Over, Little Dog
TTITLE4=Johnny 'Big Moose' Walker - Would You, Baby?
TTITLE5=Johnny 'Big Moose' Walker - Worry, Worry
TTITLE6=Johnny 'Big Moose' Walker - Sunnyland Blues
TTITLE7=Johnny 'Big Moose' Walker - Cry, Cry Darling
TTITLE8=Magic Slim and the Teardrops - Stranded On The Highway
TTITLE9=Magic Slim and the Teardrops - Dirty Mother For You
TTITLE10=Magic Slim and the Teardrops - Spider In My Stew
TTITLE11=Magic Slim and the Teardrops - Don't Say That No More
TTITLE12=Pinetop Perkins - Take It Easy, Baby
TTITLE13=Pinetop Perkins - Blues After Hours
TTITLE14=Pinetop Perkins - Little Angel Child
TTITLE15=Pinetop Perkins - How Much More Long
EXTD=
EXTT0=The Loonie Brooks Blues Band
EXTT1=The Loonie Brooks Blues Band
EXTT2=The Loonie Brooks Blues Band
EXTT3=The Loonie Brooks Blues Band
EXTT4=Johnny "Big Moose" Walker
EXTT5=Johnny "Big Moose" Walker
EXTT6=Johnny "Big Moose" Walker
EXTT7=Johnny "Big Moose" Walker
EXTT8=Magic Slim and the Teardrops
EXTT9=Magic Slim and the Teardrops
EXTT10=Magic Slim and the Teardrops
EXTT11=Magic Slim and the Teardrops
EXTT12=Pinetop Perkins
EXTT13=Pinetop Perkins
EXTT14=Pinetop Perkins
EXTT15=Pinetop Perkins
PLAYORDER=
